<?xml version="1.0" encoding="UTF-8" standalone="no"?>
<svg
   class="img-fluid"
   id="outputsvg"
   style="transform: matrix(0.455166, 0, 0, 0.455166, -35.2819, 13.1795); transform-origin: 50% 50%; cursor: move; transition: none;"
   width="332"
   height="181"
   viewBox="0 0 3320 1810"
   version="1.1"
   sodipodi:docname="tathu-logo.svg"
   inkscape:version="1.2.1 (9c6d41e410, 2022-07-14)"
   xmlns:inkscape="http://www.inkscape.org/namespaces/inkscape"
   xmlns:sodipodi="http://sodipodi.sourceforge.net/DTD/sodipodi-0.dtd"
   xmlns="http://www.w3.org/2000/svg"
   xmlns:svg="http://www.w3.org/2000/svg">
  <defs
     id="defs21" />
  <sodipodi:namedview
     id="namedview19"
     pagecolor="#ffffff"
     bordercolor="#000000"
     borderopacity="0.25"
     inkscape:showpageshadow="2"
     inkscape:pageopacity="0.0"
     inkscape:pagecheckerboard="0"
     inkscape:deskcolor="#d1d1d1"
     showgrid="false"
     inkscape:zoom="2.1436464"
     inkscape:cx="183.09923"
     inkscape:cy="55.979381"
     inkscape:window-width="1920"
     inkscape:window-height="974"
     inkscape:window-x="-11"
     inkscape:window-y="-11"
     inkscape:window-maximized="1"
     inkscape:current-layer="outputsvg" />
  <g
     id="g543">
    <path
       id="p11YTw8G8w"
       d="m 1270,1799 c -47,-3 -103,-11 -125,-18 -99,-28 -210,-116 -325,-260 -68,-86 -69,-86 -178,-134 -61,-26 -118,-47 -128,-47 -30,0 -84,40 -84,63 0,33 32,79 83,121 25,20 51,51 58,68 12,29 11,32 -21,61 -28,25 -38,28 -72,23 C 305,1648 33,1472 15,1376 2,1309 14,1235 45,1190 c 36,-51 129,-122 222,-168 46,-23 73,-42 73,-53 0,-43 45,-184 85,-266 93,-191 335,-396 610,-516 406,-177 931,-142 1289,87 32,20 59,36 61,34 1,-2 10,-26 19,-53 34,-106 188,-245 271,-245 38,0 80,25 111,65 l 26,35 h 108 c 103,0 110,1 140,27 31,26 32,29 27,88 -10,135 -87,240 -228,310 -84,43 -87,30 30,114 77,55 236,219 291,300 64,96 130,239 130,284 0,32 -7,46 -38,77 -22,23 -55,43 -80,49 -50,14 -104,3 -430,-90 l -213,-61 -48,45 c -26,24 -66,57 -89,72 -23,15 -42,31 -42,34 0,3 27,53 60,111 70,123 77,165 34,199 -40,31 -97,28 -154,-9 -54,-35 -164,-146 -205,-207 -15,-24 -28,-43 -29,-43 0,-1 -73,-14 -161,-29 l -160,-28 -140,68 c -77,38 -167,76 -199,84 -108,27 -102,53 24,102 94,36 130,65 130,103 0,78 -92,105 -300,89 z m 36,-119 c -60,-24 -84,-45 -94,-84 -9,-33 -11,-34 -157,-49 l -60,-7 52,48 c 83,76 162,107 278,110 26,1 24,-1 -19,-18 z M 312,1416 c -3,-74 -3,-75 34,-116 37,-41 38,-42 20,-68 -9,-15 -24,-43 -33,-62 -8,-19 -17,-37 -19,-39 -13,-14 -147,97 -170,140 -22,43 -17,65 23,110 33,36 128,109 143,109 3,0 4,-33 2,-74 z m 1043,-11 c 33,-8 119,-44 190,-80 130,-65 130,-65 215,-65 47,0 126,7 175,15 50,8 133,15 186,15 88,0 101,-3 160,-32 76,-38 141,-101 190,-183 34,-59 36,-60 83,-63 60,-4 76,9 76,63 0,49 -33,35 297,125 283,77 293,74 202,-85 C 3025,933 2912,808 2757,703 l -77,-51 -77,5 c -43,3 -79,7 -81,8 -2,2 18,36 44,76 40,62 48,84 52,133 3,42 1,61 -9,67 -21,13 -93,11 -112,-3 -22,-18 -135,-191 -163,-253 -19,-39 -24,-67 -24,-128 0,-43 5,-88 11,-100 10,-18 8,-25 -22,-49 -55,-47 -178,-116 -263,-149 -273,-105 -549,-108 -850,-7 -186,62 -348,165 -517,330 -99,96 -125,137 -170,268 -40,117 -44,194 -11,256 98,189 608,364 867,299 z M 2658,451 c 85,-85 102,-153 58,-246 -37,-81 -44,-82 -108,-25 -68,60 -103,132 -93,190 8,46 59,130 79,130 8,0 37,-22 64,-49 z m 290,-170 c 19,-63 17,-71 -24,-71 -29,0 -35,3 -30,16 3,9 6,41 6,71 0,54 1,55 18,39 11,-9 24,-34 30,-55 z"
       style="fill:#000000" />
    <path
       id="p1EsDGEHVB"
       d="m 2806,1017 c -14,-10 -16,-26 -14,-92 l 3,-80 58,-3 c 80,-4 87,4 87,94 0,71 -1,75 -26,84 -35,14 -87,12 -108,-3 z"
       style="fill:#000000" />
    <path
       id="p6bOspinp"
       d="M 870,885 V 780 h -40 -40 v -65 -65 h 154 c 139,0 155,2 159,18 4,16 5,16 6,0 1,-16 13,-18 95,-18 82,0 95,2 99,18 4,16 5,16 6,0 1,-17 18,-18 211,-18 h 210 v 50 c 0,43 3,50 20,50 17,0 20,-7 20,-50 v -50 h 135 135 v 88 c 0,150 31,150 38,0 l 4,-88 h 70 70 l -4,128 c -6,191 -30,218 -183,210 -61,-3 -78,-7 -99,-27 l -26,-24 v 26 c 0,27 -1,27 -70,27 h -70 v -56 c 0,-47 -3,-55 -17,-52 -14,2 -19,15 -21,56 l -3,52 h -70 -69 V 885 c 0,-105 0,-105 -25,-105 -24,0 -24,1 -27,103 l -3,102 -67,3 -67,3 -3,-103 -3,-103 -28,-3 -27,-3 25,69 c 14,38 25,86 25,106 v 36 h -70 c -66,0 -71,-2 -80,-25 -7,-18 -17,-25 -35,-25 -18,0 -28,7 -35,25 -9,23 -14,25 -80,25 h -70 v -33 c 0,-19 11,-66 25,-106 l 24,-72 -27,3 -27,3 -3,103 -3,102 h -69 -70 z"
       style="fill:#000000" />
    <path
       id="p12Fy5ftPR"
       d="m 1214,1720 c -79,-12 -141,-48 -226,-131 -84,-82 -95,-102 -50,-93 15,3 87,13 161,22 l 135,17 8,32 c 11,42 42,65 135,98 96,34 115,47 82,56 -32,9 -181,8 -245,-1 z"
       style="fill:#ffffff" />
    <path
       id="ptdW6oeDL"
       d="m 2293,1538 c -121,-118 -125,-131 -47,-143 l 40,-7 37,69 c 20,37 45,82 57,98 22,33 26,65 9,65 -6,0 -50,-37 -96,-82 z"
       style="fill:#ffffff" />
    <path
       id="p1CfCFrS3S"
       d="M 368,1560 C 211,1492 108,1408 95,1337 c -9,-45 20,-110 66,-154 38,-35 146,-103 165,-103 6,0 19,18 28,41 9,22 32,64 51,92 37,55 43,77 21,77 -7,0 -30,18 -50,40 -28,31 -36,48 -36,78 0,43 14,68 78,134 25,26 44,49 41,52 -2,2 -43,-13 -91,-34 z"
       style="fill:#ffffff" />
    <path
       id="pANRb6y8Z"
       d="m 1035,1434 c -260,-46 -513,-176 -578,-298 -18,-34 -22,-57 -22,-131 0,-76 6,-105 34,-185 18,-52 45,-115 59,-140 32,-57 171,-192 282,-276 400,-302 1000,-344 1412,-99 42,25 95,63 119,83 l 42,38 -22,41 c -45,89 -26,159 93,340 66,101 87,120 121,107 28,-11 12,-63 -49,-158 -72,-111 -96,-159 -96,-191 0,-34 15,-32 42,6 42,57 96,71 171,45 37,-14 37,-14 130,47 112,75 257,216 322,315 66,101 125,218 125,248 0,34 -34,64 -72,64 -29,0 -468,-115 -532,-139 -24,-10 -26,-14 -20,-49 4,-28 2,-41 -10,-51 -26,-22 -49,-8 -85,54 -49,82 -114,145 -190,183 -62,31 -68,32 -190,32 -69,0 -166,-7 -216,-15 -164,-27 -183,-24 -330,50 -71,36 -157,72 -190,80 -74,19 -241,18 -350,-1 z M 2884,990 c 23,-8 26,-15 26,-54 0,-50 -16,-69 -57,-64 -26,3 -28,7 -31,53 -3,38 1,52 14,62 21,15 17,15 48,3 z M 982,858 l 3,-103 43,-3 c 41,-3 42,-4 42,-38 V 680 H 945 820 v 35 c 0,34 1,35 40,35 h 40 v 105 105 h 40 39 z m 158,77 c 9,-23 15,-25 65,-25 50,0 56,2 65,25 8,21 16,25 50,25 28,0 40,-4 38,-12 -2,-7 -23,-70 -48,-140 l -45,-128 h -60 -60 l -44,128 c -24,70 -46,133 -49,140 -3,8 8,12 37,12 35,0 43,-4 51,-25 z m 368,-82 3,-103 h 39 c 39,0 40,-1 40,-35 v -35 h -125 -125 v 34 c 0,34 1,35 43,38 l 42,3 3,103 3,103 37,-3 37,-3 z m 194,55 3,-53 48,-3 47,-3 v 55 56 h 40 40 V 820 680 h -40 -40 v 50 50 h -50 -50 v -50 -50 h -40 -40 v 140 140 h 39 40 z m 417,41 c 47,-16 63,-58 69,-171 l 5,-98 h -40 -41 l -4,91 c -3,75 -8,94 -23,105 -24,18 -40,18 -59,-2 -12,-12 -16,-37 -16,-105 v -89 h -41 -41 l 4,109 c 2,92 6,112 23,131 36,40 100,51 164,29 z"
       sodipodi:nodetypes="ccsccccccccccsccccssccccsscccccscccccccscccsscccccccscscccccccscccsscccsscccccccccccccccccccccccccccccccccccccccscccccc"
       style="fill:#ffffff" />
    <path
       id="pRk87QlEW"
       d="m 1187,795 c 8,-25 16,-45 18,-45 2,0 10,20 18,45 l 16,45 h -34 -34 z"
       style="fill:#ffffff" />
    <path
       id="peyYaeKAx"
       d="m 2546,519 c -67,-79 -84,-179 -46,-267 24,-57 116,-148 158,-159 64,-16 132,139 111,251 -5,28 -23,68 -43,95 -36,49 -114,111 -139,111 -8,0 -27,-14 -41,-31 z"
       style="fill:#ffffff" />
    <path
       id="plnwZmmGF"
       d="m 2830,463 c 0,-5 9,-37 21,-73 16,-53 19,-79 13,-137 l -6,-73 h 72 72 l -7,48 c -3,26 -11,64 -17,85 -17,55 -149,189 -148,150 z"
       style="fill:#ffffff" />
  </g>
</svg>
