<?xml version="1.0" encoding="UTF-8" standalone="no"?>
<!-- Created with Inkscape (http://www.inkscape.org/) -->

<svg
   width="28.103012mm"
   height="15.288483mm"
   viewBox="0 0 28.103012 15.288483"
   version="1.1"
   id="svg10795"
   inkscape:version="1.2.1 (9c6d41e410, 2022-07-14)"
   sodipodi:docname="tathu-logo.svg"
   xmlns:inkscape="http://www.inkscape.org/namespaces/inkscape"
   xmlns:sodipodi="http://sodipodi.sourceforge.net/DTD/sodipodi-0.dtd"
   xmlns="http://www.w3.org/2000/svg"
   xmlns:svg="http://www.w3.org/2000/svg">
  <sodipodi:namedview
     id="namedview10797"
     pagecolor="#ffffff"
     bordercolor="#000000"
     borderopacity="0.25"
     inkscape:showpageshadow="2"
     inkscape:pageopacity="0.0"
     inkscape:pagecheckerboard="0"
     inkscape:deskcolor="#d1d1d1"
     inkscape:document-units="mm"
     showgrid="false"
     inkscape:zoom="6.0435466"
     inkscape:cx="110.53112"
     inkscape:cy="32.596754"
     inkscape:window-width="1920"
     inkscape:window-height="974"
     inkscape:window-x="-11"
     inkscape:window-y="-11"
     inkscape:window-maximized="1"
     inkscape:current-layer="g5415-3-6-2-5-1-9" />
  <defs
     id="defs10792" />
  <g
     inkscape:label="Camada 1"
     inkscape:groupmode="layer"
     id="layer1"
     transform="translate(-50.041654,-104.08099)">
    <g
       transform="matrix(0.28222223,0,0,0.28222223,-86.276245,-140.3236)"
       id="g5650-0-7-6-1-1"
       inkscape:export-filename="..\..\..\development\tathu\docs\sphinx\img\logo-tathu.png"
       inkscape:export-xdpi="300"
       inkscape:export-ydpi="300"
       style="stroke:none;stroke-width:1.00031;stroke-dasharray:none">
      <path
         sodipodi:nodetypes="cccccccccccccccccccccccccccccccccccccccccccccccc"
         inkscape:connector-curvature="0"
         id="path5592-8-8-9-0-8"
         d="m 530.125,869.2372 -9.875,1.5 -11.25,4.125 -8.125,6.875 c -4.03138,4.63362 -5.43975,9.77014 -7.125,15.5 l -4.375,1.125 -4.25,4 -0.75,4.5 5.75,5.625 5.5,2.5 2.625,0.25 0.625,-0.875 -2.625,-3.125 -1.875,-3.25 3.875,-3.75 9.875,4.875 6.625,8.375 8.125,1.375 5,-0.375 0.75,-2 -5.375,-2.375 -1.75,-3.375 8,-2.5 5.625,-3 8.125,1.75 3.625,0.75 5.125,7 3.875,1 0.875,-2 -3.625,-6.75 1.375,-2.75 4.25,-3.125 19.625,5.25 3.25,-3.875 -7,-11.875 -9.125,-6.625 2.875,-2.5 5.5,-4.875 1,-4.625 -1.75,-2.25 -5.5,0.375 -3.125,-2.5 -3.375,-0.125 -4.25,5.375 -1.25,5.125 -11,-6.5 -10.875,-2 z"
         style="fill:#ffffff;fill-rule:evenodd;stroke:none;stroke-width:1.00031;stroke-linecap:butt;stroke-linejoin:miter;stroke-dasharray:none;stroke-opacity:1" />
      <g
         inkscape:export-ydpi="300"
         inkscape:export-xdpi="300"
         inkscape:export-filename="D:\development\tathu\docs\sphinx\img\logo-tathu.png"
         transform="matrix(0.26917659,0,0,0.26917659,385.67478,677.76529)"
         id="g5415-3-6-2-5-1-9"
         style="stroke:none;stroke-width:3.71619;stroke-dasharray:none">
        <g
           id="g5588-4-5-6-84-0"
           style="stroke:none;stroke-width:3.71619;stroke-dasharray:none">
          <path
             id="path10-8-7-9-3-5-5"
             d="m 652.18559,701.92508 c -11.625,6.125 -22.125,18 -23.875,27.125 -0.5,2.25 -1.125,4 -1.375,4 -0.25,0 -2.875,-1.625 -5.75,-3.625 -31.5,-21.625 -81.5,-28.5 -124.25,-17 -25,6.625 -51.375,21.625 -68.625,38.875 -9.375,9.375 -10.375,11.375 -7.75,14 3.125,3.125 6.625,1.125 18.5,-10.125 13.5,-12.75 28.375,-22.375 44.25,-28.5 50.25,-19.375 103.875,-13 140,16.625 l 3.5,3 -2.625,5.25 c -5,9.875 -3.375,16.875 8.625,34.625 3.25,4.75 6.875,10.25 8,12.125 2.25,3.875 7,4.75 9.375,1.75 2,-2.375 0.375,-6.125 -8.375,-19.25 -7.75,-11.5 -10.625,-17.875 -9.375,-21 0.5,-1.375 1.625,-0.5 4.375,3.125 4.75,6.5 10.375,8.25 18,5.625 l 5.5,-1.875 8.5,5.5 c 13.125,8.5 23.5,17.75 32,28.5 8.875,11.25 19.5,30.5 19.5,35.25 0,3.5 -4,7.125 -7.875,7.125 -2.125,0 -61,-16.125 -62,-17 -0.25,-0.25 0.125,-2.125 0.875,-4.125 1.125,-3.125 1,-4.25 -0.625,-5.75 -3.5,-3.5 -7,-1.75 -10.375,5.25 -4.25,8.875 -12.5,17 -21.75,21.25 -6.875,3.125 -8.875,3.5 -21.375,3.5 -8.5,0 -18.25,-0.875 -25.625,-2.375 -13.75,-2.75 -20.625,-2.125 -28.125,2.375 -23.25,14.125 -38,16.875 -65.125,12.5 -30.125,-4.875 -57.75,-18.75 -65.375,-32.75 -4.75,-9.125 -4.125,-22.25 2,-37.5 2.5,-6.375 2.875,-8.25 1.625,-9.75 -1.875,-2.375 -6.75,-2.375 -8.625,-0.25 -2.25,2.875 -7.5,17.75 -8.25,24.25 l -0.875,6 -9.875,4.875 c -11.25,5.375 -21.375,13.875 -24.875,20.875 -2.875,5.625 -3.25,14.5 -0.875,20.25 4,9.375 21.875,21.75 41.875,28.875 11,3.875 13.875,4 18.25,0.625 5.375,-4.25 4.5,-8.5 -3.625,-15.5 -8.25,-7 -11.5,-12.375 -9.25,-15.125 0.875,-1.125 3.25,-2.75 5.25,-3.875 3.5,-1.75 4.125,-1.625 15.875,3.875 6.75,3.125 12.75,5.75 13.25,5.75 0.625,0 2.75,2.625 4.875,6 2,3.25 8.25,10.375 13.75,15.875 15.5,15.5 25.5,19.375 50.5,19.375 15.875,0 21.25,-2 23.125,-8.5 1.875,-6.625 -1.625,-10 -15,-14.75 -8.375,-3 -11.125,-4.5 -11.125,-6.125 0,-1.75 1.75,-2.625 8,-3.875 7.375,-1.5 14.125,-4.5 31.875,-13.875 l 6,-3.25 14.625,2.625 c 8,1.5 15.875,2.75 17.625,2.75 2.375,0 4,1.375 6.75,5.75 8.125,12.875 24.5,26.75 31.625,26.75 12.125,0 16.375,-8.75 9.25,-19.125 -3.125,-4.625 -10.125,-17.5 -10.125,-18.75 0,-0.25 2.75,-2.25 6.125,-4.5 3.5,-2.125 7.625,-5.625 9.375,-7.75 l 3.125,-3.75 31.125,8.875 c 17,4.75 33.125,8.75 35.625,8.75 10,0 19.625,-7.625 19.625,-15.5 0,-4.875 -6.5,-18.5 -14.5,-31 -7.25,-11.125 -25.75,-29.875 -36.375,-36.875 l -7.75,-5.125 9.25,-4.5 c 14.5,-7.125 22.875,-19 24.125,-34 0.5,-7.25 0.375,-7.625 -3.5,-11 -4,-3.25 -4.625,-3.375 -15.875,-3.125 l -11.75,0.375 -2.75,-4 c -2.875,-4.125 -8.875,-7.75 -13,-7.75 -1.25,0 -4.5,1.25 -7.25,2.625 z m 10.875,9.5 c 7.625,8.75 9.875,23 5,32.375 -2.75,5.5 -10.875,13.5 -16.125,15.875 -2.875,1.25 -3.5,1 -6.75,-2.875 -9.25,-11 -9.375,-26.625 -0.25,-36.875 4,-4.5 12.125,-10.625 14.25,-10.625 1.125,0 2.875,1 3.875,2.125 z m 31.875,14.625 c -0.375,3.75 -1.625,8.5 -2.625,10.625 -2.375,4.375 -9.5,11.875 -13.375,14 -2.5,1.25 -2.625,1.125 -1.75,-0.875 3.875,-9.375 4.625,-12.875 4,-21.5 l -0.5,-9 h 7.5 7.5 z m -293.875,98.75 c 1,2.625 3.75,7.375 6.125,10.75 4.25,5.75 4.25,6.125 1.875,6.875 -4.875,1.5 -10,8 -10,12.625 0,5.75 1.5,8.625 8.625,15.875 l 5.75,6 -6.5,-2.5 c -19.375,-7.5 -31.75,-16.625 -34.25,-25.125 -2.625,-8.75 4.125,-18.375 19,-26.875 3,-1.75 6,-2.875 6.625,-2.75 0.625,0.25 1.875,2.5 2.75,5.125 z m 226.5,49.125 c 3.5,4.875 1.625,6.5 -3.375,3 -4.125,-3 -18.875,-18.5 -18.875,-20 0,-0.5 2.375,-1.5 5.375,-2.125 l 5.25,-1.25 4.375,8.25 c 2.375,4.5 5.625,9.875 7.25,12.125 z m -151.625,-6.5 c 6.25,1 13.875,1.875 17,1.875 5.5,0 5.875,0.25 6.5,3.75 1.25,5.625 4.625,8.125 16.375,11.875 6.25,2 10.625,4 10.375,4.875 -0.375,0.875 -5.5,1.375 -16,1.25 -17.625,-0.25 -22.375,-1.625 -33.125,-10.125 -6.375,-5.125 -15.375,-15.375 -13.375,-15.375 0.5,0 6.125,0.875 12.25,1.875 z"
             inkscape:connector-curvature="0"
             style="fill:#000000;fill-opacity:1;stroke:none;stroke-width:3.71619;stroke-dasharray:none" />
          <path
             id="path36-5-3-2-3-8-6"
             d="m 675.81059,797.30008 c -0.375,0.875 -0.5,4.125 -0.25,7.125 0.375,5 0.75,5.5 3.875,5.875 2,0.25 4.375,-0.25 5.375,-1.125 2,-1.625 2.375,-7.75 0.5,-11.25 -1.625,-2.75 -8.5,-3.25 -9.5,-0.625 z"
             inkscape:connector-curvature="0"
             style="stroke:none;stroke-width:3.71619;stroke-dasharray:none" />
        </g>
        <path
           style="fill:#000000;fill-opacity:1;stroke:none;stroke-width:3.71619;stroke-linecap:round;stroke-linejoin:round;stroke-dasharray:none"
           d="m 407.69289,778.70892 c 1.40628,-3.23747 2.69458,-6.56818 4.8976,-9.37144 2.96084,-4.46617 6.3987,-8.6814 10.21883,-12.39688 -0.70277,2.48027 -1.60449,4.94308 -2.37458,7.4193 1.90726,2.34533 4.1653,0.6693 6.19356,-0.42649 1.75628,-0.90156 3.51256,-1.80316 5.26888,-2.70473 -3.912,4.54089 -8.25424,8.76596 -11.37309,13.92566 -1.55002,2.10467 -2.23994,4.65965 -3.39394,6.95253 -1.30873,-0.10588 -1.95879,-2.73489 -3.95362,-2.25699 -1.82787,-0.38035 -3.65577,-0.76066 -5.48364,-1.14096 z"
           id="path8906-6"
           sodipodi:nodetypes="cccccccccccccc" />
      </g>
    </g>
    <g
       aria-label="TATHU"
       id="text4136-6-2-0-2-7-0-7-7-1-0-5"
       style="font-size:3.16501px;line-height:0%;font-family:Calibri;-inkscape-font-specification:Calibri;letter-spacing:0px;word-spacing:0px;stroke-width:0.263751px">
      <path
         d="m 59.11067,110.44133 v -0.66597 H 56.9512 v 0.66597 h 0.713256 v 1.73782 h 0.732959 v -1.73782 z"
         style="font-weight:800;font-size:3.94064px;line-height:1.25;font-family:Gentona;-inkscape-font-specification:'Gentona Ultra-Bold';stroke-width:0.941928px"
         id="path10946" />
      <path
         d="m 59.772703,111.82056 h 0.941813 l 0.118219,0.35859 h 0.776306 l -0.863,-2.40379 h -1.004863 l -0.863,2.40379 h 0.780247 z m 0.732959,-0.62657 h -0.528046 l 0.193092,-0.57533 c 0.03153,-0.0985 0.05517,-0.18127 0.07093,-0.2522 0.0197,0.0709 0.03941,0.15368 0.07487,0.2522 z"
         style="font-weight:800;font-size:3.94064px;line-height:1.25;font-family:Gentona;-inkscape-font-specification:'Gentona Ultra-Bold';stroke-width:0.941928px"
         id="path10948" />
      <path
         d="m 63.528137,110.44133 v -0.66597 h -2.159471 v 0.66597 h 0.713256 v 1.73782 h 0.732959 v -1.73782 z"
         style="font-weight:800;font-size:3.94064px;line-height:1.25;font-family:Gentona;-inkscape-font-specification:'Gentona Ultra-Bold';stroke-width:0.941928px"
         id="path10950" />
      <path
         d="m 65.994977,112.17915 v -2.40379 h -0.7369 v 0.863 h -0.776306 v -0.863 h -0.736899 v 2.40379 h 0.736899 v -0.87088 h 0.776306 v 0.87088 z"
         style="font-weight:800;font-size:3.94064px;line-height:1.25;font-family:Gentona;-inkscape-font-specification:'Gentona Ultra-Bold';stroke-width:0.941928px"
         id="path10952" />
      <path
         d="M 68.572159,109.77536 H 67.8392 v 1.2413 c 0,0.37042 -0.130041,0.52805 -0.390123,0.52805 -0.256142,0 -0.386183,-0.15763 -0.386183,-0.52805 v -1.2413 h -0.732959 v 1.2413 c 0,0.81572 0.362539,1.19796 1.119142,1.19796 0.760543,0 1.123082,-0.3783 1.123082,-1.19796 z"
         style="font-weight:800;font-size:3.94064px;line-height:1.25;font-family:Gentona;-inkscape-font-specification:'Gentona Ultra-Bold';stroke-width:0.941928px"
         id="path10954" />
    </g>
  </g>
</svg>
